# xmcd CD database file
#
# Track frame offsets:
#	150
#	16067
#	32754
#	46613
#	68890
#	92063
#	102525
#	121715
#	135964
#	151352
#	174262
#	195677
#	211827
#	223787
#
# Disc length: 3176 seconds
#
# Revision: 5
# Processed by: cddbd v1.5.2PL0 Copyright (c) Steve Scherf et al.
# Submitted via: CDex 1.70beta2
#
DISCID=b10c660e
DTITLE=Christina Crerar - Little Jazz Bird
DYEAR=2005
DGENRE=Jazz
TTITLE0=Little Jazz Bird
TTITLE1=Thou Swell
TTITLE2=Occasional Man
TTITLE3=If Yesterday Could Only Be Tomorrow
TTITLE4=But Not For Me
TTITLE5=Solid Potato Salad
TTITLE6=Down With Love
TTITLE7=You'd Be So Nice To Come Home To
TTITLE8=No Moon At All
TTITLE9=Hershey Bar
TTITLE10=Hallelujah, I Love Him So
TTITLE11=Waters of March
TTITLE12=Give Me The Simple Life
TTITLE13=Spring Will Be A Little Late This Year
EXTD=YEAR: 2005
EXTT0=
EXTT1=
EXTT2=
EXTT3=
EXTT4=
EXTT5=
EXTT6=
EXTT7=
EXTT8=
EXTT9=
EXTT10=
EXTT11=
EXTT12=
EXTT13=
PLAYORDER=
